<svg xmlns="http://www.w3.org/2000/svg" xmlns:xlink="http://www.w3.org/1999/xlink" viewBox="0 0 453.62 508.22"><defs><style>.cls-1{fill:#ff00cf;}.cls-2{fill:#9c00e5;}.cls-3{fill:#a510fc;}.cls-4{fill:url(#Безымянный_градиент_10);}.cls-5{fill:url(#Безымянный_градиент_10-2);}.cls-6{fill:#db00bc;}.cls-7{fill:#9306ce;}.cls-8{fill:#8400b4;}.cls-9{fill:#fff;}</style><linearGradient id="Безымянный_градиент_10" x1="-128.34" y1="131.21" x2="225.65" y2="485.21" gradientTransform="matrix(1, 0, 0, -1, 0, 510.22)" gradientUnits="userSpaceOnUse"><stop offset="0" stop-color="#b31de7"/><stop offset="0.34" stop-color="#cf4ef0"/><stop offset="0.79" stop-color="#f089fb"/><stop offset="1" stop-color="#fda0ff"/></linearGradient><linearGradient id="Безымянный_градиент_10-2" x1="-36.03" y1="-64.42" x2="-650.56" y2="550.11" gradientTransform="translate(-181.33 510.22) rotate(180)" xlink:href="#Безымянный_градиент_10"/></defs><g id="Слой_2" data-name="Слой 2"><g id="Capa_1" data-name="Capa 1"><path class="cls-1" d="M421.42,254.18q-194.61.06-389.22,0,0,31.62.31,63.24c65,21.87,129.84,44.11,194.3,65.57,64.46-21.46,129.32-43.7,194.29-65.57q.31-31.62.32-63.24Z"/><path class="cls-1" d="M32.51,317.42q.81,82.56,3.67,165.13c.41,11.63,10.15,21.53,21.7,22q53.06,2.28,106.11,3.13c20.42-41.63,41.49-83.58,62.82-125.62,21.33,42,42.4,84,62.82,125.62q53.06-.86,106.1-3.13c11.56-.51,21.29-10.41,21.7-22q2.86-82.56,3.67-165.13-194.3,2.37-388.59,0Z"/><path class="cls-2" d="M291.2,254.21H162.41q0,32.13.11,64.26,32.25,32.26,64.29,64.52,32-32.19,64.29-64.52.09-32.13.1-64.26Z"/><path class="cls-3" d="M248.24,275.82q-32.19,51.56-64,102.9,32.17,64.86,63.51,129.44,20.94-.14,41.88-.55,1.17-116,1.47-231.94-21.44.1-42.86.15Z"/><path class="cls-2" d="M162.52,275.67q.3,116,1.47,231.93,41.88.82,83.76.55.39-116.16.49-232.33-42.87.06-85.72-.15Z"/><path class="cls-4" d="M62.77,13.18C44.22,52.92,43,97.27,60.28,135.89A20.61,20.61,0,0,0,79.56,148c52.48,13.38,105.17,27.49,158,41.84Q216.07,136.15,195,82.57q-6.79-11-13.56-22C159.85,25.45,124.27,3.16,84.64.06A22.6,22.6,0,0,0,62.77,13.18Z"/><path class="cls-5" d="M390.85,13.18c18.55,39.74,19.77,84.09,2.49,122.71A20.62,20.62,0,0,1,374.06,148c-52.48,13.38-105.17,27.49-158,41.84q21.47-53.67,42.56-107.25,6.81-11,13.56-22C293.76,25.45,329.35,3.16,369,.06A22.62,22.62,0,0,1,390.85,13.18Z"/><path class="cls-2" d="M390.85,13.18A22.59,22.59,0,0,0,369,.07c-39.62,3.09-75.21,25.38-96.76,60.46q-6.75,11-13.55,22-31.86-.17-63.7,0-6.79-11-13.55-22C159.85,25.45,124.27,3.16,84.64.07A22.58,22.58,0,0,0,62.77,13.18C44.22,52.92,43,97.27,60.28,135.89A20.61,20.61,0,0,0,79.56,148c48.84,19.55,98,39.9,147.25,60.39,49.25-20.49,98.41-40.84,147.25-60.39a20.61,20.61,0,0,0,19.28-12.09c17.28-38.62,16.06-83-2.49-122.71Z"/><path class="cls-3" d="M195,82.58q-.18,42.9-.26,85.81,32.1-.07,64.22,0-.09-42.9-.27-85.81-31.84-.17-63.69,0Z"/><path class="cls-6" d="M431.29,149q-59.49-1.23-119-1.74-42.63,16.34-85.49,33.16-42.85-16.77-85.5-33.16-59.49.51-119,1.74C10.52,149.26.78,158.85.6,170.41Q-.09,217.52,0,264.64a10.72,10.72,0,0,0,10.76,10.53q65.1.3,130.2.42,42.89-16.62,85.84-33.45,42.93,16.75,85.84,33.45,65.1-.12,130.19-.42a10.7,10.7,0,0,0,10.76-10.53q.11-47.12-.59-94.23c-.17-11.56-9.92-21.15-21.72-21.41Z"/><path class="cls-7" d="M236.17,146.92c-21.31,21.35-9.35,42.89-30.81,64.37,21.43,21.44,9.53,42.88,31,64.3,14.3,0,62,0,76.31,0q.09-64.17-.35-128.33C298.06,147.13,250.41,147,236.17,146.92Z"/><path class="cls-8" d="M141.22,147.26q-.33,64.17-.26,128.33,48.29.12,96.56.06,0-64.33-.13-128.67-48.09-.28-96.17.28Z"/><circle class="cls-9" cx="226.81" cy="274.49" r="142.37"/><path d="M156.24,281.88a18.32,18.32,0,0,1-25.3,0,17.73,17.73,0,0,1,0-25,18.34,18.34,0,0,1,25.3,0,17.73,17.73,0,0,1,0,25Zm-18.53-6.67a8.46,8.46,0,1,0-2.33-5.83A8,8,0,0,0,137.71,275.21Z"/><path d="M184.92,262.18v8.45h-6.53v15.55h-8.93V270.63h-6.62v-8.45Z"/><path d="M211.56,286.18h-9.84l-5.76-9.6v9.6h-8.88v-24H196v9.31l5-9.31h10.08l-7.3,12Z"/><path d="M228.79,261.51a9.94,9.94,0,0,1,7.92,3.6,14.93,14.93,0,0,1,0,18.14,9.94,9.94,0,0,1-7.92,3.6,7.81,7.81,0,0,1-6.43-2.83v11.76h-8.88v-33.6h8.88v2.16A7.81,7.81,0,0,1,228.79,261.51Zm-5.26,15.88a4.33,4.33,0,0,0,6.19,0,5,5,0,0,0,0-6.43,4.36,4.36,0,0,0-6.19,0,5,5,0,0,0,0,6.43Z"/><path d="M255.23,268.42a9.6,9.6,0,0,1,6.89,2.38,9.64,9.64,0,0,1,0,13,9.6,9.6,0,0,1-6.89,2.38H242.56v-24h8.88v6.24ZM254.13,279c1.25,0,1.87-.56,1.87-1.68s-.62-1.68-1.87-1.68h-2.69V279Zm11.95-16.8H275v24h-8.88Z"/><path d="M299.2,262.18v8.45h-6.53v15.55h-8.92V270.63h-6.63v-8.45Z"/><path d="M314,268.42a9.6,9.6,0,0,1,6.89,2.38,9.64,9.64,0,0,1,0,13,9.6,9.6,0,0,1-6.89,2.38H301.36v-24h8.88v6.24ZM312.93,279c1.25,0,1.87-.56,1.87-1.68s-.62-1.68-1.87-1.68h-2.69V279Z"/></g></g></svg>